PathFileType	4	(X/Y/Z)	 s10c0102.trc
DataRate	CameraRate	NumFrames	NumMarkers	Units	OrigDataRate	OrigDataStartFrame	OrigNumFrames
200	200	4	50	mm	200	1001	2000
Frame#	Time	racr			lacr			c7			jug			rlel			rdr			llel			ldr			s2			lic			ric			lasi			rasi			rpsi			lpsi			rgt			lgt			rth1			rth2			rth3			rth4			rlfc			rmfc			rsh1			rsh2			rsh3			rsh4			rlmal			rmmal			rcal			rtoe			rmt5			lth1			lth2			lth4			lth3			llfc			lmfc			llmal			lmmal			lcal			lmt5			lsh1			lsh2			lsh3			lsh4			ltoe			SBIKE			LBIKE			RBIKE			
		X1	Y1	Z1	X2	Y2	Z2	X3	Y3	Z3	X4	Y4	Z4	X5	Y5	Z5	X6	Y6	Z6	X7	Y7	Z7	X8	Y8	Z8	X9	Y9	Z9	X10	Y10	Z10	X11	Y11	Z11	X12	Y12	Z12	X13	Y13	Z13	X14	Y14	Z14	X15	Y15	Z15	X16	Y16	Z16	X17	Y17	Z17	X18	Y18	Z18	X19	Y19	Z19	X20	Y20	Z20	X21	Y21	Z21	X22	Y22	Z22	X23	Y23	Z23	X24	Y24	Z24	X25	Y25	Z25	X26	Y26	Z26	X27	Y27	Z27	X28	Y28	Z28	X29	Y29	Z29	X30	Y30	Z30	X31	Y31	Z31	X32	Y32	Z32	X33	Y33	Z33	X34	Y34	Z34	X35	Y35	Z35	X36	Y36	Z36	X37	Y37	Z37	X38	Y38	Z38	X39	Y39	Z39	X40	Y40	Z40	X41	Y41	Z41	X42	Y42	Z42	X43	Y43	Z43	X44	Y44	Z44	X45	Y45	Z45	X46	Y46	Z46	X47	Y47	Z47	X48	Y48	Z48	X49	Y49	Z49	X50	Y50	Z50	
1001	5.0050	462.376158	1279.850886	-78.350405	443.786315	1277.295108	-366.632793	409.320174	1308.864451	-219.038321	440.009486	1169.866367	-212.638683	492.491652	1034.346922	34.535549	644.724909	874.556599	-8.406128	520.676372	1035.985630	-477.601108	659.711997	890.698899	-375.731215	-98.818491	1092.248986	-200.651906	60.067516	1139.497483	-351.878942	85.094308	1105.468459	-53.561534	90.173001	1052.201237	-315.533980	81.699723	1020.047283	-72.414501	-61.026629	1146.316165	-132.493526	-59.919840	1161.846895	-244.635669	-36.042763	980.934576	-18.202619	-2.173150	1024.778786	-409.518330	21.311964	849.813357	4.779435	79.140595	782.531120	-4.636589	93.625543	698.832322	-16.647697	112.788036	800.309559	-8.300016	146.390278	606.688490	-29.993530	146.300831	600.246775	-146.811486	78.551957	510.750050	-12.394010	80.209561	423.092061	-26.345647	38.669176	348.189015	-39.843503	114.122784	418.218097	-43.389072	16.234314	246.116159	-58.904157	59.005856	261.457804	-130.301461	-31.309658	236.866155	-110.663258	200.142112	167.782254	-86.864108	109.297082	157.389205	-32.390652	124.233880	992.208781	-401.499349	202.842750	1008.339071	-368.132779	199.646055	1038.781027	-347.059119	287.674249	984.619427	-360.324291	392.289612	970.194002	-322.006120	385.043320	946.484263	-194.509488	200.981305	636.412606	-360.727080	215.240831	624.396993	-281.130191	140.113948	627.087890	-322.829047	250.202095	486.189243	-382.119720	329.427799	872.277934	-360.489260	310.473102	787.720316	-356.039909	250.280643	722.373685	-363.082688	337.162805	773.363298	-333.159957	327.515679	453.645139	-324.416685	-204.953314	834.244269	-223.603598	-78.299799	82.016298	-423.635262	-102.722317	80.519352	-24.336223	
1002	5.0100	463.424353	1279.555789	-79.406303	443.039199	1277.177233	-368.548344	409.888486	1308.411678	-220.095164	440.567363	1169.413015	-213.653392	492.667426	1034.375555	34.525029	644.763868	874.575382	-8.349874	518.741754	1034.523101	-478.236114	659.475468	890.617848	-375.627119	-98.229312	1093.407414	-201.189924	60.694414	1141.454563	-350.720124	86.343435	1105.727788	-53.103914	89.168201	1052.910322	-314.719264	81.533097	1020.766984	-72.067010	-61.076271	1147.539678	-132.672853	-59.727050	1163.377191	-244.683535	-36.872239	981.951935	-18.282955	-1.529766	1026.290139	-410.389383	20.742814	850.160442	4.068243	79.715260	783.614786	-4.776055	95.643185	700.389167	-16.786016	112.933832	801.620801	-7.943426	148.475082	609.379664	-28.830923	150.765892	601.342652	-145.237058	78.392471	514.900805	-11.847123	77.945496	427.224983	-26.101794	34.672202	353.395146	-40.171347	111.832402	421.498255	-42.897055	9.390990	252.459980	-59.706438	43.522528	262.808127	-134.442170	-38.413419	244.136949	-111.870044	191.209925	168.947515	-87.207493	99.855700	161.102606	-33.080397	123.703534	993.458735	-401.834994	202.613158	1008.221133	-368.524624	199.908323	1038.694023	-347.383046	286.982857	983.084541	-361.217485	390.791318	968.198421	-323.819367	382.414247	945.156682	-196.039168	205.029233	631.483780	-360.943571	219.629075	620.357534	-281.735907	144.205715	620.327934	-323.370959	259.308584	483.205986	-381.991744	327.307685	870.640906	-359.961407	310.955358	785.599034	-356.726107	252.492564	718.578052	-363.421991	338.376627	771.639422	-334.397371	337.800438	454.153899	-324.202030	-205.159073	834.272966	-223.748157	-78.293141	82.024795	-423.665765	-102.717693	80.485442	-24.338269	
1003	5.0150	464.393268	1279.108295	-80.464876	442.222622	1276.999447	-370.187883	410.343676	1308.045880	-221.005582	440.651634	1168.961127	-214.661729	492.780744	1034.344182	34.636766	644.719517	874.617782	-8.406133	516.885016	1033.195477	-478.649165	659.188554	890.476977	-375.517661	-97.977316	1094.572580	-201.533531	61.079909	1143.110784	-349.288824	86.518178	1106.127981	-53.289209	88.377147	1053.789483	-314.664325	81.358063	1021.527063	-71.626846	-61.052493	1148.606586	-133.019547	-59.253194	1164.458354	-245.604187	-37.707957	983.203609	-18.524176	-1.073384	1027.410531	-411.047295	20.641794	850.712580	3.664998	80.714332	785.122202	-5.131919	98.198819	702.325041	-16.848587	113.558350	803.693276	-7.180055	151.393470	612.465283	-27.694322	156.103178	603.274119	-143.845688	79.207837	519.467586	-11.321032	76.502811	431.903453	-25.946826	31.471089	359.406792	-40.176710	110.282988	425.380046	-42.595394	3.079714	259.290420	-60.490646	37.950932	268.860846	-135.000254	-44.836689	252.210396	-112.629328	182.488196	170.394131	-87.602664	90.934579	165.586463	-33.756400	122.946462	993.645566	-402.075231	202.303280	1006.940590	-369.050329	200.299581	1037.471763	-348.056096	286.108934	979.900374	-362.043183	389.638665	964.608282	-325.614635	380.342776	942.747467	-197.845833	208.471661	625.526825	-361.482431	222.415507	614.810746	-282.872052	147.906108	612.432038	-324.013378	268.132161	479.960604	-382.414596	325.188914	867.560219	-359.472018	311.231158	781.907604	-357.666075	254.307865	713.666750	-364.356783	339.263468	768.398896	-335.894132	347.682293	454.121710	-324.001428	-205.000070	834.106446	-223.813291	-78.290601	81.996046	-423.665770	-102.760240	80.540716	-24.342300	
1004	5.0200	465.301337	1278.625813	-81.559747	441.414847	1276.699318	-371.451867	410.707386	1307.565354	-221.865057	440.808187	1168.430821	-215.621540	492.839212	1034.226218	34.875167	644.671528	874.703723	-8.482761	515.136118	1032.005855	-478.842068	658.900376	890.322595	-375.400863	-97.921102	1095.585798	-201.919243	61.317638	1144.707423	-348.099926	86.621199	1106.591236	-53.435972	87.687563	1054.405689	-315.025958	80.898273	1022.374091	-71.458744	-61.102992	1149.689040	-133.486580	-58.911900	1165.655651	-246.481852	-38.641864	984.760505	-18.733700	-0.871481	1028.105151	-411.416669	20.695978	851.477211	3.186047	82.148723	787.213162	-5.072864	101.336589	704.656353	-16.839400	114.783652	806.627990	-6.129429	155.097982	615.840094	-26.673242	162.031538	605.906154	-142.596084	80.963412	524.377444	-10.859606	75.794487	436.930241	-25.855278	28.674089	365.799271	-40.618118	109.540323	429.322926	-42.535111	-2.738022	266.651598	-61.166001	32.747840	275.381650	-135.595043	-50.713190	261.039177	-113.426671	174.134946	172.420646	-88.058825	82.410682	170.491489	-34.369588	121.908844	992.963238	-402.163725	201.783249	1004.567395	-369.717181	200.388673	1035.331172	-348.766072	284.950431	975.663381	-363.131849	388.464841	959.550559	-327.705590	378.410615	939.118448	-199.851661	211.268723	618.362701	-362.285749	225.742381	608.318706	-284.330954	151.072577	603.465522	-324.895376	276.464582	476.042687	-382.705693	323.152396	863.202253	-359.395117	311.312759	776.946226	-359.320029	255.584692	707.596751	-365.625370	339.803180	763.623930	-337.771127	357.056516	453.648113	-323.780878	-205.079701	834.062982	-223.964258	-78.311652	81.922861	-423.675331	-102.736625	80.518569	-24.356006	
